<mxfile host="Electron" agent="Mozilla/5.0 (X11; Linux x86_64) AppleWebKit/537.36 (KHTML, like Gecko) draw.io/24.7.17 Chrome/128.0.6613.186 Electron/32.2.1 Safari/537.36" version="24.7.17">
  <diagram name="Página-1" id="Q3MQK9eLE-fshYRaL-MQ">
    <mxGraphModel dx="1529" dy="937" grid="1" gridSize="10" guides="1" tooltips="1" connect="1" arrows="1" fold="1" page="1" pageScale="1" pageWidth="827" pageHeight="1169" math="0" shadow="0">
      <root>
        <mxCell id="Eu2buTDhop-BOXAHw6NF-0" />
        <mxCell id="Eu2buTDhop-BOXAHw6NF-1" parent="Eu2buTDhop-BOXAHw6NF-0" />
        <mxCell id="0c--Cq4GU_85b215walp-6" value="" style="edgeStyle=orthogonalEdgeStyle;rounded=0;orthogonalLoop=1;jettySize=auto;html=1;" parent="Eu2buTDhop-BOXAHw6NF-1" source="0c--Cq4GU_85b215walp-0" target="0c--Cq4GU_85b215walp-5" edge="1">
          <mxGeometry relative="1" as="geometry" />
        </mxCell>
        <mxCell id="0c--Cq4GU_85b215walp-0" value="Nuevo Usuario" style="shape=umlActor;verticalLabelPosition=bottom;verticalAlign=top;html=1;outlineConnect=0;" parent="Eu2buTDhop-BOXAHw6NF-1" vertex="1">
          <mxGeometry x="44" y="590" width="30" height="60" as="geometry" />
        </mxCell>
        <mxCell id="PGBivgjFUVnGUzISr3lj-24" value="" style="edgeStyle=orthogonalEdgeStyle;rounded=0;orthogonalLoop=1;jettySize=auto;html=1;endArrow=none;endFill=0;dashed=1;dashPattern=8 8;" parent="Eu2buTDhop-BOXAHw6NF-1" source="0c--Cq4GU_85b215walp-5" target="PGBivgjFUVnGUzISr3lj-23" edge="1">
          <mxGeometry relative="1" as="geometry" />
        </mxCell>
        <mxCell id="0c--Cq4GU_85b215walp-5" value="Crear cuenta" style="ellipse;whiteSpace=wrap;html=1;verticalAlign=middle;align=center;" parent="Eu2buTDhop-BOXAHw6NF-1" vertex="1">
          <mxGeometry x="14" y="490" width="90" height="55" as="geometry" />
        </mxCell>
        <mxCell id="0c--Cq4GU_85b215walp-53" style="edgeStyle=orthogonalEdgeStyle;rounded=0;orthogonalLoop=1;jettySize=auto;html=1;" parent="Eu2buTDhop-BOXAHw6NF-1" source="0c--Cq4GU_85b215walp-8" target="0c--Cq4GU_85b215walp-15" edge="1">
          <mxGeometry relative="1" as="geometry">
            <Array as="points">
              <mxPoint x="159" y="230" />
            </Array>
          </mxGeometry>
        </mxCell>
        <mxCell id="0c--Cq4GU_85b215walp-54" style="edgeStyle=orthogonalEdgeStyle;rounded=0;orthogonalLoop=1;jettySize=auto;html=1;" parent="Eu2buTDhop-BOXAHw6NF-1" source="0c--Cq4GU_85b215walp-8" target="0c--Cq4GU_85b215walp-45" edge="1">
          <mxGeometry relative="1" as="geometry">
            <Array as="points">
              <mxPoint x="159" y="710" />
            </Array>
          </mxGeometry>
        </mxCell>
        <mxCell id="PGBivgjFUVnGUzISr3lj-27" value="" style="edgeStyle=orthogonalEdgeStyle;rounded=0;orthogonalLoop=1;jettySize=auto;html=1;" parent="Eu2buTDhop-BOXAHw6NF-1" source="0c--Cq4GU_85b215walp-8" target="PGBivgjFUVnGUzISr3lj-26" edge="1">
          <mxGeometry relative="1" as="geometry" />
        </mxCell>
        <mxCell id="PGBivgjFUVnGUzISr3lj-39" style="edgeStyle=orthogonalEdgeStyle;rounded=0;orthogonalLoop=1;jettySize=auto;html=1;entryX=0;entryY=0.5;entryDx=0;entryDy=0;" parent="Eu2buTDhop-BOXAHw6NF-1" source="0c--Cq4GU_85b215walp-8" target="PGBivgjFUVnGUzISr3lj-20" edge="1">
          <mxGeometry relative="1" as="geometry" />
        </mxCell>
        <mxCell id="vJx__80vHbVH02SjPqjo-4" style="edgeStyle=orthogonalEdgeStyle;rounded=0;orthogonalLoop=1;jettySize=auto;html=1;entryX=0;entryY=0.5;entryDx=0;entryDy=0;" parent="Eu2buTDhop-BOXAHw6NF-1" source="0c--Cq4GU_85b215walp-8" target="vJx__80vHbVH02SjPqjo-2" edge="1">
          <mxGeometry relative="1" as="geometry" />
        </mxCell>
        <mxCell id="0c--Cq4GU_85b215walp-8" value="Usuario" style="shape=umlActor;verticalLabelPosition=bottom;verticalAlign=top;html=1;outlineConnect=0;" parent="Eu2buTDhop-BOXAHw6NF-1" vertex="1">
          <mxGeometry x="144" y="390" width="30" height="60" as="geometry" />
        </mxCell>
        <mxCell id="9_rghuKC3j3RGYFYqaF6-5" style="edgeStyle=orthogonalEdgeStyle;rounded=0;orthogonalLoop=1;jettySize=auto;html=1;entryX=0;entryY=0.5;entryDx=0;entryDy=0;" parent="Eu2buTDhop-BOXAHw6NF-1" source="0c--Cq4GU_85b215walp-15" target="9_rghuKC3j3RGYFYqaF6-3" edge="1">
          <mxGeometry relative="1" as="geometry" />
        </mxCell>
        <mxCell id="0c--Cq4GU_85b215walp-15" value="Asesor" style="shape=umlActor;verticalLabelPosition=bottom;verticalAlign=top;html=1;outlineConnect=0;" parent="Eu2buTDhop-BOXAHw6NF-1" vertex="1">
          <mxGeometry x="199" y="200" width="30" height="60" as="geometry" />
        </mxCell>
        <mxCell id="PGBivgjFUVnGUzISr3lj-4" style="edgeStyle=orthogonalEdgeStyle;rounded=0;orthogonalLoop=1;jettySize=auto;html=1;entryX=0;entryY=0.5;entryDx=0;entryDy=0;" parent="Eu2buTDhop-BOXAHw6NF-1" source="0c--Cq4GU_85b215walp-45" target="PGBivgjFUVnGUzISr3lj-3" edge="1">
          <mxGeometry relative="1" as="geometry">
            <Array as="points">
              <mxPoint x="214" y="600" />
            </Array>
          </mxGeometry>
        </mxCell>
        <mxCell id="PGBivgjFUVnGUzISr3lj-17" style="edgeStyle=orthogonalEdgeStyle;rounded=0;orthogonalLoop=1;jettySize=auto;html=1;entryX=0;entryY=0.5;entryDx=0;entryDy=0;" parent="Eu2buTDhop-BOXAHw6NF-1" source="0c--Cq4GU_85b215walp-45" target="PGBivgjFUVnGUzISr3lj-16" edge="1">
          <mxGeometry relative="1" as="geometry">
            <mxPoint x="214" y="860" as="sourcePoint" />
            <Array as="points">
              <mxPoint x="214" y="840" />
            </Array>
          </mxGeometry>
        </mxCell>
        <mxCell id="Q1BVSHCQuP1x_I5187WG-1" value="" style="edgeStyle=orthogonalEdgeStyle;rounded=0;orthogonalLoop=1;jettySize=auto;html=1;" parent="Eu2buTDhop-BOXAHw6NF-1" source="0c--Cq4GU_85b215walp-45" target="Q1BVSHCQuP1x_I5187WG-0" edge="1">
          <mxGeometry relative="1" as="geometry">
            <Array as="points">
              <mxPoint x="274" y="710" />
              <mxPoint x="274" y="710" />
            </Array>
          </mxGeometry>
        </mxCell>
        <mxCell id="0c--Cq4GU_85b215walp-45" value="Alumno" style="shape=umlActor;verticalLabelPosition=bottom;verticalAlign=top;html=1;outlineConnect=0;" parent="Eu2buTDhop-BOXAHw6NF-1" vertex="1">
          <mxGeometry x="199" y="680" width="30" height="60" as="geometry" />
        </mxCell>
        <mxCell id="PGBivgjFUVnGUzISr3lj-6" style="edgeStyle=orthogonalEdgeStyle;rounded=0;orthogonalLoop=1;jettySize=auto;html=1;entryX=0;entryY=0.5;entryDx=0;entryDy=0;" parent="Eu2buTDhop-BOXAHw6NF-1" source="0c--Cq4GU_85b215walp-47" target="PGBivgjFUVnGUzISr3lj-0" edge="1">
          <mxGeometry relative="1" as="geometry" />
        </mxCell>
        <mxCell id="0c--Cq4GU_85b215walp-47" value="Líder de Equipo" style="shape=umlActor;verticalLabelPosition=bottom;verticalAlign=top;html=1;outlineConnect=0;" parent="Eu2buTDhop-BOXAHw6NF-1" vertex="1">
          <mxGeometry x="384" y="570" width="30" height="60" as="geometry" />
        </mxCell>
        <mxCell id="9_rghuKC3j3RGYFYqaF6-4" value="Agendar reuniones con el equipo" style="ellipse;whiteSpace=wrap;html=1;verticalAlign=middle;align=center;" parent="Eu2buTDhop-BOXAHw6NF-1" vertex="1">
          <mxGeometry x="404" y="201.25" width="100" height="57.5" as="geometry" />
        </mxCell>
        <mxCell id="9_rghuKC3j3RGYFYqaF6-7" value="" style="edgeStyle=orthogonalEdgeStyle;rounded=0;orthogonalLoop=1;jettySize=auto;html=1;entryX=0;entryY=0.5;entryDx=0;entryDy=0;" parent="Eu2buTDhop-BOXAHw6NF-1" source="0c--Cq4GU_85b215walp-15" target="9_rghuKC3j3RGYFYqaF6-3" edge="1">
          <mxGeometry relative="1" as="geometry">
            <mxPoint x="229" y="230" as="sourcePoint" />
            <mxPoint x="424" y="230" as="targetPoint" />
          </mxGeometry>
        </mxCell>
        <mxCell id="9_rghuKC3j3RGYFYqaF6-8" value="" style="edgeStyle=orthogonalEdgeStyle;rounded=0;orthogonalLoop=1;jettySize=auto;html=1;" parent="Eu2buTDhop-BOXAHw6NF-1" source="9_rghuKC3j3RGYFYqaF6-3" target="9_rghuKC3j3RGYFYqaF6-4" edge="1">
          <mxGeometry relative="1" as="geometry" />
        </mxCell>
        <mxCell id="Q1BVSHCQuP1x_I5187WG-7" value="" style="edgeStyle=orthogonalEdgeStyle;rounded=0;orthogonalLoop=1;jettySize=auto;html=1;" parent="Eu2buTDhop-BOXAHw6NF-1" source="9_rghuKC3j3RGYFYqaF6-3" target="9_rghuKC3j3RGYFYqaF6-4" edge="1">
          <mxGeometry relative="1" as="geometry" />
        </mxCell>
        <mxCell id="Q1BVSHCQuP1x_I5187WG-8" value="" style="edgeStyle=orthogonalEdgeStyle;rounded=0;orthogonalLoop=1;jettySize=auto;html=1;" parent="Eu2buTDhop-BOXAHw6NF-1" source="9_rghuKC3j3RGYFYqaF6-3" target="9_rghuKC3j3RGYFYqaF6-4" edge="1">
          <mxGeometry relative="1" as="geometry" />
        </mxCell>
        <mxCell id="Q1BVSHCQuP1x_I5187WG-10" value="" style="edgeStyle=orthogonalEdgeStyle;rounded=0;orthogonalLoop=1;jettySize=auto;html=1;" parent="Eu2buTDhop-BOXAHw6NF-1" source="9_rghuKC3j3RGYFYqaF6-3" target="Q1BVSHCQuP1x_I5187WG-9" edge="1">
          <mxGeometry relative="1" as="geometry">
            <Array as="points">
              <mxPoint x="319" y="138" />
            </Array>
          </mxGeometry>
        </mxCell>
        <mxCell id="9_rghuKC3j3RGYFYqaF6-3" value="Unirse a proyecto&amp;nbsp;" style="ellipse;whiteSpace=wrap;html=1;verticalAlign=middle;align=center;" parent="Eu2buTDhop-BOXAHw6NF-1" vertex="1">
          <mxGeometry x="274" y="202.5" width="90" height="55" as="geometry" />
        </mxCell>
        <mxCell id="PGBivgjFUVnGUzISr3lj-41" value="" style="edgeStyle=orthogonalEdgeStyle;rounded=0;orthogonalLoop=1;jettySize=auto;html=1;" parent="Eu2buTDhop-BOXAHw6NF-1" source="PGBivgjFUVnGUzISr3lj-0" target="PGBivgjFUVnGUzISr3lj-40" edge="1">
          <mxGeometry relative="1" as="geometry" />
        </mxCell>
        <mxCell id="PGBivgjFUVnGUzISr3lj-44" value="" style="edgeStyle=orthogonalEdgeStyle;rounded=0;orthogonalLoop=1;jettySize=auto;html=1;exitX=0.5;exitY=1;exitDx=0;exitDy=0;" parent="Eu2buTDhop-BOXAHw6NF-1" source="PGBivgjFUVnGUzISr3lj-0" target="PGBivgjFUVnGUzISr3lj-43" edge="1">
          <mxGeometry relative="1" as="geometry">
            <Array as="points">
              <mxPoint x="509" y="708" />
            </Array>
          </mxGeometry>
        </mxCell>
        <mxCell id="-abihIE500p0bfGIa6gH-3" value="" style="edgeStyle=orthogonalEdgeStyle;rounded=0;orthogonalLoop=1;jettySize=auto;html=1;exitX=0.5;exitY=0;exitDx=0;exitDy=0;" parent="Eu2buTDhop-BOXAHw6NF-1" source="PGBivgjFUVnGUzISr3lj-0" target="-abihIE500p0bfGIa6gH-2" edge="1">
          <mxGeometry relative="1" as="geometry">
            <Array as="points">
              <mxPoint x="509" y="500" />
            </Array>
          </mxGeometry>
        </mxCell>
        <mxCell id="PGBivgjFUVnGUzISr3lj-0" value="Gestionar proyecto" style="ellipse;whiteSpace=wrap;html=1;verticalAlign=middle;align=center;" parent="Eu2buTDhop-BOXAHw6NF-1" vertex="1">
          <mxGeometry x="464" y="572.5" width="90" height="55" as="geometry" />
        </mxCell>
        <mxCell id="PGBivgjFUVnGUzISr3lj-7" style="edgeStyle=orthogonalEdgeStyle;rounded=0;orthogonalLoop=1;jettySize=auto;html=1;" parent="Eu2buTDhop-BOXAHw6NF-1" source="PGBivgjFUVnGUzISr3lj-3" target="0c--Cq4GU_85b215walp-47" edge="1">
          <mxGeometry relative="1" as="geometry" />
        </mxCell>
        <mxCell id="PGBivgjFUVnGUzISr3lj-3" value="Crear proyecto" style="ellipse;whiteSpace=wrap;html=1;verticalAlign=middle;align=center;" parent="Eu2buTDhop-BOXAHw6NF-1" vertex="1">
          <mxGeometry x="244" y="572.5" width="90" height="55" as="geometry" />
        </mxCell>
        <mxCell id="PGBivgjFUVnGUzISr3lj-12" style="edgeStyle=orthogonalEdgeStyle;rounded=0;orthogonalLoop=1;jettySize=auto;html=1;entryX=0;entryY=0.5;entryDx=0;entryDy=0;" parent="Eu2buTDhop-BOXAHw6NF-1" source="PGBivgjFUVnGUzISr3lj-13" target="PGBivgjFUVnGUzISr3lj-14" edge="1">
          <mxGeometry relative="1" as="geometry" />
        </mxCell>
        <mxCell id="PGBivgjFUVnGUzISr3lj-13" value="Integrante de Equipo" style="shape=umlActor;verticalLabelPosition=bottom;verticalAlign=top;html=1;outlineConnect=0;" parent="Eu2buTDhop-BOXAHw6NF-1" vertex="1">
          <mxGeometry x="404" y="810" width="30" height="60" as="geometry" />
        </mxCell>
        <mxCell id="vJx__80vHbVH02SjPqjo-7" value="" style="edgeStyle=orthogonalEdgeStyle;rounded=0;orthogonalLoop=1;jettySize=auto;html=1;endArrow=none;endFill=0;dashed=1;dashPattern=8 8;" parent="Eu2buTDhop-BOXAHw6NF-1" source="PGBivgjFUVnGUzISr3lj-14" target="vJx__80vHbVH02SjPqjo-6" edge="1">
          <mxGeometry relative="1" as="geometry" />
        </mxCell>
        <mxCell id="PGBivgjFUVnGUzISr3lj-14" value="Gestionar activades asignadas" style="ellipse;whiteSpace=wrap;html=1;verticalAlign=middle;align=center;" parent="Eu2buTDhop-BOXAHw6NF-1" vertex="1">
          <mxGeometry x="484" y="812.5" width="90" height="55" as="geometry" />
        </mxCell>
        <mxCell id="PGBivgjFUVnGUzISr3lj-15" style="edgeStyle=orthogonalEdgeStyle;rounded=0;orthogonalLoop=1;jettySize=auto;html=1;" parent="Eu2buTDhop-BOXAHw6NF-1" source="PGBivgjFUVnGUzISr3lj-16" target="PGBivgjFUVnGUzISr3lj-13" edge="1">
          <mxGeometry relative="1" as="geometry" />
        </mxCell>
        <mxCell id="PGBivgjFUVnGUzISr3lj-16" value="Unirse a proyecto" style="ellipse;whiteSpace=wrap;html=1;verticalAlign=middle;align=center;" parent="Eu2buTDhop-BOXAHw6NF-1" vertex="1">
          <mxGeometry x="264" y="812.5" width="90" height="55" as="geometry" />
        </mxCell>
        <mxCell id="vJx__80vHbVH02SjPqjo-1" value="" style="edgeStyle=orthogonalEdgeStyle;rounded=0;orthogonalLoop=1;jettySize=auto;html=1;endArrow=none;endFill=0;dashed=1;dashPattern=8 8;" parent="Eu2buTDhop-BOXAHw6NF-1" source="PGBivgjFUVnGUzISr3lj-20" target="vJx__80vHbVH02SjPqjo-0" edge="1">
          <mxGeometry relative="1" as="geometry" />
        </mxCell>
        <mxCell id="PGBivgjFUVnGUzISr3lj-20" value="Actualizar datos de perfil y cuenta" style="ellipse;whiteSpace=wrap;html=1;verticalAlign=middle;align=center;" parent="Eu2buTDhop-BOXAHw6NF-1" vertex="1">
          <mxGeometry x="244" y="470" width="100" height="57.5" as="geometry" />
        </mxCell>
        <mxCell id="PGBivgjFUVnGUzISr3lj-25" value="" style="edgeStyle=orthogonalEdgeStyle;rounded=0;orthogonalLoop=1;jettySize=auto;html=1;endArrow=none;endFill=0;dashed=1;dashPattern=8 8;" parent="Eu2buTDhop-BOXAHw6NF-1" source="PGBivgjFUVnGUzISr3lj-23" target="0c--Cq4GU_85b215walp-8" edge="1">
          <mxGeometry relative="1" as="geometry" />
        </mxCell>
        <mxCell id="PGBivgjFUVnGUzISr3lj-23" value="Validar Correo" style="ellipse;whiteSpace=wrap;html=1;verticalAlign=middle;align=center;" parent="Eu2buTDhop-BOXAHw6NF-1" vertex="1">
          <mxGeometry x="14" y="392.5" width="90" height="55" as="geometry" />
        </mxCell>
        <mxCell id="PGBivgjFUVnGUzISr3lj-30" value="" style="edgeStyle=orthogonalEdgeStyle;rounded=0;orthogonalLoop=1;jettySize=auto;html=1;endArrow=none;endFill=0;dashed=1;dashPattern=8 8;" parent="Eu2buTDhop-BOXAHw6NF-1" source="PGBivgjFUVnGUzISr3lj-26" target="PGBivgjFUVnGUzISr3lj-28" edge="1">
          <mxGeometry relative="1" as="geometry" />
        </mxCell>
        <mxCell id="PGBivgjFUVnGUzISr3lj-26" value="Iniciar sesión" style="ellipse;whiteSpace=wrap;html=1;verticalAlign=middle;align=center;" parent="Eu2buTDhop-BOXAHw6NF-1" vertex="1">
          <mxGeometry x="244" y="392.5" width="90" height="55" as="geometry" />
        </mxCell>
        <mxCell id="PGBivgjFUVnGUzISr3lj-28" value="Validar Credenciales" style="ellipse;whiteSpace=wrap;html=1;verticalAlign=middle;align=center;" parent="Eu2buTDhop-BOXAHw6NF-1" vertex="1">
          <mxGeometry x="378" y="391.25" width="100" height="57.5" as="geometry" />
        </mxCell>
        <mxCell id="5M0Ydp9KJkjTWztyCfgb-0" value="" style="edgeStyle=orthogonalEdgeStyle;rounded=0;orthogonalLoop=1;jettySize=auto;html=1;endArrow=none;endFill=0;dashed=1;dashPattern=8 8;" parent="Eu2buTDhop-BOXAHw6NF-1" source="PGBivgjFUVnGUzISr3lj-40" target="e3v-rX-F-pmXQ6O5jwZ3-2" edge="1">
          <mxGeometry relative="1" as="geometry" />
        </mxCell>
        <mxCell id="PGBivgjFUVnGUzISr3lj-40" value="Eliminar Integrantes" style="ellipse;whiteSpace=wrap;html=1;verticalAlign=middle;align=center;" parent="Eu2buTDhop-BOXAHw6NF-1" vertex="1">
          <mxGeometry x="594" y="572.5" width="90" height="55" as="geometry" />
        </mxCell>
        <mxCell id="5M0Ydp9KJkjTWztyCfgb-2" value="" style="edgeStyle=orthogonalEdgeStyle;rounded=0;orthogonalLoop=1;jettySize=auto;html=1;endArrow=none;endFill=0;dashed=1;dashPattern=8 8;" parent="Eu2buTDhop-BOXAHw6NF-1" source="PGBivgjFUVnGUzISr3lj-43" target="5M0Ydp9KJkjTWztyCfgb-1" edge="1">
          <mxGeometry relative="1" as="geometry" />
        </mxCell>
        <mxCell id="PGBivgjFUVnGUzISr3lj-43" value="Actualizar Proyecto" style="ellipse;whiteSpace=wrap;html=1;verticalAlign=middle;align=center;" parent="Eu2buTDhop-BOXAHw6NF-1" vertex="1">
          <mxGeometry x="594" y="680" width="90" height="55" as="geometry" />
        </mxCell>
        <mxCell id="5M0Ydp9KJkjTWztyCfgb-3" value="" style="edgeStyle=orthogonalEdgeStyle;rounded=0;orthogonalLoop=1;jettySize=auto;html=1;endArrow=none;endFill=0;dashed=1;dashPattern=8 8;" parent="Eu2buTDhop-BOXAHw6NF-1" source="-abihIE500p0bfGIa6gH-2" target="-abihIE500p0bfGIa6gH-4" edge="1">
          <mxGeometry relative="1" as="geometry" />
        </mxCell>
        <mxCell id="-abihIE500p0bfGIa6gH-2" value="Agregar Integrantes" style="ellipse;whiteSpace=wrap;html=1;verticalAlign=middle;align=center;" parent="Eu2buTDhop-BOXAHw6NF-1" vertex="1">
          <mxGeometry x="594" y="467.5" width="90" height="60" as="geometry" />
        </mxCell>
        <mxCell id="-abihIE500p0bfGIa6gH-4" value="Panel de Solicitudes" style="ellipse;whiteSpace=wrap;html=1;verticalAlign=middle;align=center;" parent="Eu2buTDhop-BOXAHw6NF-1" vertex="1">
          <mxGeometry x="724" y="467.5" width="90" height="60" as="geometry" />
        </mxCell>
        <mxCell id="e3v-rX-F-pmXQ6O5jwZ3-2" value="Panel de Integrantes" style="ellipse;whiteSpace=wrap;html=1;verticalAlign=middle;align=center;" parent="Eu2buTDhop-BOXAHw6NF-1" vertex="1">
          <mxGeometry x="724" y="570" width="90" height="60" as="geometry" />
        </mxCell>
        <mxCell id="vJx__80vHbVH02SjPqjo-0" value="Panel de Gestión de Cuenta" style="ellipse;whiteSpace=wrap;html=1;verticalAlign=middle;align=center;" parent="Eu2buTDhop-BOXAHw6NF-1" vertex="1">
          <mxGeometry x="384" y="468.75" width="106" height="60" as="geometry" />
        </mxCell>
        <mxCell id="vJx__80vHbVH02SjPqjo-5" value="" style="edgeStyle=orthogonalEdgeStyle;rounded=0;orthogonalLoop=1;jettySize=auto;html=1;endArrow=none;endFill=0;dashed=1;dashPattern=8 8;" parent="Eu2buTDhop-BOXAHw6NF-1" source="vJx__80vHbVH02SjPqjo-2" target="vJx__80vHbVH02SjPqjo-3" edge="1">
          <mxGeometry relative="1" as="geometry" />
        </mxCell>
        <mxCell id="vJx__80vHbVH02SjPqjo-2" value="Buscar proyectos" style="ellipse;whiteSpace=wrap;html=1;verticalAlign=middle;align=center;" parent="Eu2buTDhop-BOXAHw6NF-1" vertex="1">
          <mxGeometry x="244" y="300" width="100" height="60" as="geometry" />
        </mxCell>
        <mxCell id="vJx__80vHbVH02SjPqjo-3" value="Panel de Búsqueda de Proyecto" style="ellipse;whiteSpace=wrap;html=1;verticalAlign=middle;align=center;" parent="Eu2buTDhop-BOXAHw6NF-1" vertex="1">
          <mxGeometry x="384" y="300" width="106" height="60" as="geometry" />
        </mxCell>
        <mxCell id="vJx__80vHbVH02SjPqjo-6" value="Canvas" style="ellipse;whiteSpace=wrap;html=1;verticalAlign=middle;align=center;" parent="Eu2buTDhop-BOXAHw6NF-1" vertex="1">
          <mxGeometry x="604" y="812.5" width="90" height="55" as="geometry" />
        </mxCell>
        <mxCell id="5M0Ydp9KJkjTWztyCfgb-1" value="Panel Gestión de Proyecto" style="ellipse;whiteSpace=wrap;html=1;verticalAlign=middle;align=center;" parent="Eu2buTDhop-BOXAHw6NF-1" vertex="1">
          <mxGeometry x="724" y="680" width="90" height="55" as="geometry" />
        </mxCell>
        <mxCell id="Q1BVSHCQuP1x_I5187WG-6" style="edgeStyle=orthogonalEdgeStyle;rounded=0;orthogonalLoop=1;jettySize=auto;html=1;entryX=0;entryY=0.5;entryDx=0;entryDy=0;" parent="Eu2buTDhop-BOXAHw6NF-1" source="Q1BVSHCQuP1x_I5187WG-0" target="Q1BVSHCQuP1x_I5187WG-5" edge="1">
          <mxGeometry relative="1" as="geometry" />
        </mxCell>
        <mxCell id="Q1BVSHCQuP1x_I5187WG-0" value="Alumno sin Equipo" style="shape=umlActor;verticalLabelPosition=bottom;verticalAlign=top;html=1;outlineConnect=0;" parent="Eu2buTDhop-BOXAHw6NF-1" vertex="1">
          <mxGeometry x="294" y="680" width="30" height="60" as="geometry" />
        </mxCell>
        <mxCell id="Q1BVSHCQuP1x_I5187WG-5" value="Solicitud de Admisión de Proyecto" style="ellipse;whiteSpace=wrap;html=1;verticalAlign=middle;align=center;" parent="Eu2buTDhop-BOXAHw6NF-1" vertex="1">
          <mxGeometry x="374" y="681.25" width="100" height="57.5" as="geometry" />
        </mxCell>
        <mxCell id="Q1BVSHCQuP1x_I5187WG-12" style="edgeStyle=orthogonalEdgeStyle;rounded=0;orthogonalLoop=1;jettySize=auto;html=1;entryX=0;entryY=0.5;entryDx=0;entryDy=0;endArrow=none;endFill=0;dashed=1;dashPattern=8 8;" parent="Eu2buTDhop-BOXAHw6NF-1" source="Q1BVSHCQuP1x_I5187WG-9" target="Q1BVSHCQuP1x_I5187WG-11" edge="1">
          <mxGeometry relative="1" as="geometry" />
        </mxCell>
        <mxCell id="Q1BVSHCQuP1x_I5187WG-9" value="Visualizar Progreso de Proyecto" style="ellipse;whiteSpace=wrap;html=1;verticalAlign=middle;align=center;" parent="Eu2buTDhop-BOXAHw6NF-1" vertex="1">
          <mxGeometry x="415" y="110" width="90" height="55" as="geometry" />
        </mxCell>
        <mxCell id="Q1BVSHCQuP1x_I5187WG-11" value="Mostar Avances" style="ellipse;whiteSpace=wrap;html=1;verticalAlign=middle;align=center;" parent="Eu2buTDhop-BOXAHw6NF-1" vertex="1">
          <mxGeometry x="550" y="110" width="90" height="55" as="geometry" />
        </mxCell>
      </root>
    </mxGraphModel>
  </diagram>
</mxfile>
